<?xml version="1.0" encoding="utf-8"?>
<!-- Generator: Adobe Illustrator 19.1.0, SVG Export Plug-In . SVG Version: 6.00 Build 0)  -->
<svg version="1.1" id="Layer_1" xmlns="http://www.w3.org/2000/svg" xmlns:xlink="http://www.w3.org/1999/xlink" x="0px" y="0px"
	 viewBox="-456 458.9 85.2 85.1" style="enable-background:new -456 458.9 85.2 85.1;" xml:space="preserve">
<style type="text/css">
	.st0{fill:#853CD3;}
	.st1{fill:#E185FF;}
</style>
<circle class="st0" cx="-413.5" cy="501.4" r="42.5"/>
<path class="st1" d="M-440,507.9c-1,0-2-1-2-1.5v-10c0-1,1-1.5,2-1.5s2,1,2,1.5v10C-438,506.9-439,507.9-440,507.9z"/>
<path class="st1" d="M-431,520.4c-1,0-2-1-2-1.5v-33c0-1,1-1.5,2-1.5s2,1,2,1.5v33C-429,519.4-430,520.4-431,520.4z"/>
<path class="st1" d="M-422.5,536.9c-1,0-2-1-2-1.5v-66.5c0-1,1-1.5,2-1.5s2,1,2,1.5v66.5C-420.5,535.9-421.5,536.9-422.5,536.9z"/>
<path class="st1" d="M-414.5,531.4c-1,0-2-1-2-1.5v-55.5c0-1,1-1.5,2-1.5s2,1,2,1.5v55.5C-412,530.4-413,531.4-414.5,531.4z"/>
<path class="st1" d="M-406,522.4c-1,0-2-1-2-1.5v-37.5c0-1,1-1.5,2-1.5s2,1,2,1.5v37.5C-404,521.9-405,522.4-406,522.4z"/>
<path class="st1" d="M-397.5,514.4c-1,0-2-1-2-1.5v-21c0-1,1-1.5,2-1.5s2,1,2,1.5v21C-395.5,513.4-396.5,514.4-397.5,514.4z"/>
<path class="st1" d="M-389.5,508.9c-1,0-2-1-2-1.5v-10c0-1,1-1.5,2-1.5s2,1,2,1.5v10C-387.5,507.9-388,508.9-389.5,508.9z"/>
<path class="st1" d="M-382,506.9c-1,0-2-0.5-2-1v-7c0-0.5,1-1,2-1s2,0.5,2,1v7C-380,505.9-381,506.9-382,506.9z"/>
</svg>
