<?xml version="1.0" encoding="utf-8"?>
<!-- Generator: Adobe Illustrator 19.1.0, SVG Export Plug-In . SVG Version: 6.00 Build 0)  -->
<svg version="1.1" id="Layer_1" xmlns="http://www.w3.org/2000/svg" xmlns:xlink="http://www.w3.org/1999/xlink" x="0px" y="0px"
	 viewBox="-949 938 118.6 125" style="enable-background:new -949 938 118.6 125;" xml:space="preserve">
<style type="text/css">
	.st0{fill:none;}
	.st1{fill:#853CD3;}
	.st2{font-family:'Raleway-Light';}
	.st3{font-size:30px;}
	.st4{fill:#E185FF;}
</style>
<rect x="-946" y="998.8" class="st0" width="118.6" height="26.7"/>
<text transform="matrix(1 0 0 1 -946 1020.677)" class="st1 st2 st3">Stati   </text>
<circle class="st1" cx="-876.9" cy="1013.3" r="8.5"/>
<path class="st4" d="M-880.4,1017.1c-0.2,0-0.4-0.2-0.4-0.3v-6.6c0-0.2,0.2-0.3,0.4-0.3s0.4,0.2,0.4,0.3v6.6
	C-880,1016.9-880.2,1017.1-880.4,1017.1z"/>
<path class="st4" d="M-877.1,1019.3c-0.2,0-0.4-0.2-0.4-0.3v-11.1c0-0.2,0.2-0.3,0.4-0.3s0.4,0.2,0.4,0.3v11.1
	C-876.6,1019.1-876.8,1019.3-877.1,1019.3z"/>
<path class="st4" d="M-878.7,1020.4c-0.2,0-0.4-0.2-0.4-0.3v-13.3c0-0.2,0.2-0.3,0.4-0.3c0.2,0,0.4,0.2,0.4,0.3v13.3
	C-878.3,1020.2-878.5,1020.4-878.7,1020.4z"/>
<path class="st4" d="M-875.4,1017.5c-0.2,0-0.4-0.2-0.4-0.3v-7.5c0-0.2,0.2-0.3,0.4-0.3s0.4,0.2,0.4,0.3v7.5
	C-875,1017.4-875.2,1017.5-875.4,1017.5z"/>
<path class="st4" d="M-873.7,1015.9c-0.2,0-0.4-0.2-0.4-0.3v-4.2c0-0.2,0.2-0.3,0.4-0.3s0.4,0.2,0.4,0.3v4.2
	C-873.3,1015.7-873.5,1015.9-873.7,1015.9z"/>
<path class="st4" d="M-872.1,1014.8c-0.2,0-0.4-0.2-0.4-0.3v-2c0-0.2,0.2-0.3,0.4-0.3s0.4,0.2,0.4,0.3v2
	C-871.7,1014.6-871.8,1014.8-872.1,1014.8z"/>
<path class="st4" d="M-882.2,1014.6c-0.2,0-0.4-0.2-0.4-0.3v-2c0-0.2,0.2-0.3,0.4-0.3s0.4,0.2,0.4,0.3v2
	C-881.8,1014.4-882,1014.6-882.2,1014.6z"/>
<path class="st4" d="M-870.6,1014.4c-0.2,0-0.4-0.1-0.4-0.2v-1.4c0-0.1,0.2-0.2,0.4-0.2s0.4,0.1,0.4,0.2v1.4
	C-870.2,1014.2-870.4,1014.4-870.6,1014.4z"/>
<rect x="-867.2" y="999" class="st0" width="36.2" height="30.5"/>
<text transform="matrix(1 0 0 1 -867.25 1020.8999)" class="st1 st2 st3">ns</text>
</svg>
