<?xml version="1.0" encoding="utf-8"?>
<!-- Generator: Adobe Illustrator 19.1.0, SVG Export Plug-In . SVG Version: 6.00 Build 0)  -->
<svg version="1.1" id="Layer_1" xmlns="http://www.w3.org/2000/svg" xmlns:xlink="http://www.w3.org/1999/xlink" x="0px" y="0px"
	 viewBox="-940 979.2 118.6 43.8" style="enable-background:new -940 979.2 118.6 43.8;" xml:space="preserve">
<style type="text/css">
	.st0{fill:none;}
	.st1{fill:#FFFFFF;}
	.st2{font-family:'Raleway-Light';}
	.st3{font-size:30px;}
	.st4{fill:#5E35B1;}
	.st5{fill:#E185FF;}
</style>
<rect x="-937.5" y="989.3" class="st0" width="118.6" height="26.7"/>
<text transform="matrix(1 0 0 1 -934.25 1011.177)" class="st1 st2 st3">sta</text>
<text transform="matrix(1 0 0 1 -893.5 1011.177)" class="st4 st2 st3">ti   </text>
<circle class="st4" cx="-868.4" cy="1003.8" r="8.5"/>
<path class="st5" d="M-871.9,1007.6c-0.2,0-0.4-0.2-0.4-0.3v-6.6c0-0.2,0.2-0.3,0.4-0.3s0.4,0.2,0.4,0.3v6.6
	C-871.5,1007.4-871.7,1007.6-871.9,1007.6z"/>
<path class="st5" d="M-868.6,1009.8c-0.2,0-0.4-0.2-0.4-0.3v-11.1c0-0.2,0.2-0.3,0.4-0.3s0.4,0.2,0.4,0.3v11.1
	C-868.1,1009.6-868.3,1009.8-868.6,1009.8z"/>
<path class="st5" d="M-870.2,1010.9c-0.2,0-0.4-0.2-0.4-0.3v-13.3c0-0.2,0.2-0.3,0.4-0.3s0.4,0.2,0.4,0.3v13.3
	C-869.8,1010.7-870,1010.9-870.2,1010.9z"/>
<path class="st5" d="M-866.9,1008c-0.2,0-0.4-0.2-0.4-0.3v-7.5c0-0.2,0.2-0.3,0.4-0.3s0.4,0.2,0.4,0.3v7.5
	C-866.5,1007.9-866.7,1008-866.9,1008z"/>
<path class="st5" d="M-865.2,1006.4c-0.2,0-0.4-0.2-0.4-0.3v-4.2c0-0.2,0.2-0.3,0.4-0.3s0.4,0.2,0.4,0.3v4.2
	C-864.8,1006.2-865,1006.4-865.2,1006.4z"/>
<path class="st5" d="M-863.6,1005.3c-0.2,0-0.4-0.2-0.4-0.3v-2c0-0.2,0.2-0.3,0.4-0.3s0.4,0.2,0.4,0.3v2
	C-863.2,1005.1-863.3,1005.3-863.6,1005.3z"/>
<path class="st5" d="M-873.7,1005.1c-0.2,0-0.4-0.2-0.4-0.3v-2c0-0.2,0.2-0.3,0.4-0.3s0.4,0.2,0.4,0.3v2
	C-873.3,1004.9-873.5,1005.1-873.7,1005.1z"/>
<path class="st5" d="M-862.1,1004.9c-0.2,0-0.4-0.1-0.4-0.2v-1.4c0-0.1,0.2-0.2,0.4-0.2s0.4,0.1,0.4,0.2v1.4
	C-861.7,1004.7-861.9,1004.9-862.1,1004.9z"/>
<rect x="-858.7" y="989.5" class="st0" width="36.2" height="30.5"/>
<text transform="matrix(1 0 0 1 -858.75 1011.3999)" class="st4 st2 st3">ns</text>
</svg>
